<svg fill="#000000" xmlns="http://www.w3.org/2000/svg"  viewBox="0 0 32 32" width="32px" height="32px"><path d="M 18.46875 3 L 16.59375 7.03125 C 16.394531 7.019531 16.199219 7 16 7 C 9.9375 7 5 11.9375 5 18 C 5 20.933594 6.148438 23.617188 8.03125 25.59375 L 6.46875 29 L 10 29 L 10.65625 27.59375 C 12.238281 28.476563 14.066406 29 16 29 C 22.0625 29 27 24.0625 27 18 C 27 14.144531 25.011719 10.746094 22 8.78125 L 22 3 Z M 15.6875 9 L 8.96875 23.59375 C 7.746094 22.058594 7 20.125 7 18 C 7 13.121094 10.847656 9.164063 15.6875 9 Z M 19 9.53125 L 19 15.5625 L 22 18.21875 L 22 11.3125 C 23.835938 12.957031 25 15.332031 25 18 C 25 22.980469 20.980469 27 16 27 C 14.351563 27 12.824219 26.550781 11.5 25.78125 L 13.6875 21 L 18 21 L 18 23 L 22 19.53125 L 18 16 L 18 18 L 15.0625 18 Z M 22 20.875 L 19 23.46875 L 19 24 L 22 24 Z"/></svg>